<svg xmlns="http://www.w3.org/2000/svg" width="406" height="231" viewBox="0 0 406 231" fill="none"><path d="M312.094 125.838C314.713 123.154 319.587 124.751 320.262 128.39C321.184 131.931 316.689 135.702 313.51 133.611C310.513 132.474 309.69 127.946 312.094 125.838Z" fill="#222021"></path><path d="M133.386 138.436C132.941 132.853 138.128 127.765 143.695 128.39C151.912 128.456 160.129 127.979 168.33 128.538C176.087 130.021 177.207 141.663 170.076 144.792C164.493 146.192 158.664 145.171 152.982 145.467C153.015 147.18 153.048 148.893 153.081 150.605C159.059 150.984 166.42 148.909 171.081 153.734C174.885 157.489 173.188 164.488 168.281 166.365C163.489 168.292 158.12 167.007 153.098 167.238C153.032 168.967 152.982 170.713 152.949 172.458C159.701 173.298 168.33 170.317 173.402 176.229C177.635 181.268 173.386 189.486 166.98 189.486C159.224 189.749 151.451 189.535 143.695 189.552C138.178 189.996 133.238 185.04 133.402 179.605C133.32 165.887 133.353 152.153 133.386 138.436Z" fill="#222021"></path><path d="M178.639 136.805C178.524 129.592 188.289 124.652 193.823 129.609C202.699 137.958 209.335 148.498 218.277 156.797C218.524 149.617 217.833 142.421 218.623 135.29C219.94 128.506 229.212 125.311 234.399 129.988C239.06 133.545 237.841 139.901 237.989 145.006C237.742 157.654 238.384 170.317 237.66 182.932C236.425 190.589 225.161 192.648 220.566 186.835C213.057 177.827 205.712 168.671 198.219 159.646C198.022 167.37 198.549 175.109 197.972 182.8C196.737 190.013 186.544 192.746 181.669 187.477C178.31 184.117 178.425 179.095 178.491 174.698C178.705 162.067 178.343 149.42 178.639 136.805Z" fill="#222021"></path><path d="M265.655 128.621C271.468 125.607 279.373 130.235 279.373 136.838C279.702 146.653 279.373 156.484 279.521 166.299C279.735 173.1 278.269 180.494 273.082 185.303C266.133 191.561 255.544 191.215 247.211 188.284C241.579 186.456 237.495 178.848 241.958 173.907C246.009 169.033 252.497 172.606 257.388 173.776C257.948 173.347 259.068 172.491 259.628 172.046C260.764 160.354 259.595 148.53 260.188 136.789C260.237 133.298 262.658 130.218 265.655 128.621Z" fill="#222021"></path><path d="M326.767 129.065C330.357 126.348 335.495 130.449 334.128 134.417C333.321 138.04 327.92 139.028 325.795 136.081C323.984 134.055 324.494 130.548 326.767 129.065Z" fill="#222021"></path><path d="M350.925 141.894C347.236 134.829 354.779 125.163 362.552 128.259C369.386 131.536 372.778 138.979 377.932 144.216C382.362 139.177 385.952 133.215 391.37 129.131C400.246 122.972 411.28 137.036 403.178 144.183C398.254 149.766 392.836 154.903 388.077 160.651C386.809 168.424 388.916 176.559 387.006 184.266C384.124 192.615 370.67 192.104 368.496 183.508C367.442 176.048 368.365 168.407 368.068 160.881C362.519 154.393 356.211 148.58 350.925 141.894Z" fill="#222021"></path><path d="M298.64 129.691C303.63 125.887 309.591 134.006 304.503 137.481C299.727 141.597 293.601 133.364 298.64 129.691Z" fill="#222021"></path><path d="M338.739 137.859C344.684 135.34 348.076 145.138 341.983 146.95C336.302 149.057 333.058 139.819 338.739 137.859Z" fill="#222021"></path><path d="M289.056 140.461C292.086 138.024 296.993 140.906 296.549 144.743C296.664 148.992 290.324 150.836 288.002 147.394C286.322 145.352 286.635 141.812 289.056 140.461Z" fill="#222021"></path><path d="M341.983 152.417C346.479 148.366 352.836 156.336 347.978 159.877C343.416 164.389 336.516 155.99 341.983 152.417Z" fill="#222021"></path><path d="M285.647 154.903C290.373 150.539 296.779 159.152 291.411 162.528C286.652 166.53 280.526 158.263 285.647 154.903Z" fill="#222021"></path><path d="M338.525 166.892C341.522 163.747 347.533 167.007 346.397 171.272C346.248 174.862 340.88 176.69 338.509 174.072C336.417 172.293 336.285 168.605 338.525 166.892Z" fill="#222021"></path><path d="M290.439 168.275C295.939 165.179 300.814 173.808 295.33 176.888C289.879 179.786 285.268 171.454 290.439 168.275Z" fill="#222021"></path><path d="M328.793 177.464C333.354 173.413 339.777 180.939 335.034 184.842C330.39 189.288 323.737 181.268 328.793 177.464Z" fill="#222021"></path><path d="M300.699 178.666C305.524 174.352 311.831 182.866 306.561 186.324C301.637 190.243 295.857 182.158 300.699 178.666Z" fill="#222021"></path><path d="M315.289 181.548C319.982 178.09 325.614 185.583 321.135 189.14C316.409 194.014 309.492 184.941 315.289 181.548Z" fill="#222021"></path><path d="M184.09 197.308C184.913 197.506 186.544 197.901 187.367 198.098C191.748 207.485 195.519 217.152 199.8 226.571C203.983 217.152 207.886 207.6 212.118 198.214C212.975 197.983 214.704 197.539 215.56 197.308C215.461 208.358 215.576 219.391 215.478 230.441C214.737 230.458 213.222 230.474 212.481 230.474C212.464 221.993 212.497 213.496 212.497 205.015C208.66 213.414 205.317 222.026 201.381 230.375C200.591 230.375 199.01 230.375 198.219 230.392C194.284 222.076 191.039 213.446 187.087 205.13C187.137 213.562 187.137 221.993 187.12 230.408L184.123 230.573C184.041 219.474 184.09 208.391 184.09 197.308Z" fill="#222021"></path><path d="M239.537 198.197C249.335 194.311 261.126 201.968 261.851 212.376C263.135 222.29 253.979 231.857 243.983 230.771C235.503 230.408 228.224 222.652 228.388 214.155C228.158 207.123 232.983 200.519 239.537 198.197ZM241.036 201.013C231.649 203.467 228.257 216.559 235.074 223.377C241.513 230.837 255.313 228.103 258.063 218.519C262.246 208.506 251.13 197.143 241.036 201.013Z" fill="#222021"></path><path d="M273.576 200.667C273.51 199.63 273.444 198.592 273.378 197.555C280.213 197.604 287.063 197.588 293.897 197.588C293.815 198.362 293.667 199.893 293.584 200.651C290.768 200.634 287.969 200.634 285.169 200.634C285.12 210.597 285.268 220.561 285.087 230.524C284.33 230.507 282.831 230.474 282.09 230.458C282.123 220.511 282.106 210.548 282.09 200.602C279.257 200.618 276.409 200.618 273.576 200.667Z" fill="#222021"></path><path d="M307.006 197.588C311.995 197.703 316.985 197.39 321.991 197.654C324.182 197.423 324.05 199.284 323.589 200.75C319.06 200.585 314.548 200.569 310.036 200.602C310.003 204.554 310.019 208.523 310.036 212.475C313.692 213.315 320.526 210.038 321.448 215.274C317.644 215.505 313.84 215.521 310.052 215.521C310.019 219.507 310.019 223.475 310.052 227.461C314.581 227.428 319.11 227.461 323.638 227.345C323.704 228.399 323.753 229.47 323.786 230.54C318.187 230.441 312.605 230.474 307.006 230.474C306.923 219.507 306.923 208.556 307.006 197.588Z" fill="#222021"></path><path d="M336.895 197.407C337.636 197.621 339.101 198.066 339.842 198.28C340.221 207.979 339.777 217.712 340.007 227.428C344.948 227.444 349.888 227.461 354.845 227.329C355.075 228.037 355.553 229.453 355.783 230.161C349.526 230.754 343.235 230.392 336.961 230.458C336.878 219.441 336.994 208.424 336.895 197.407Z" fill="#222021"></path><path d="M133.814 212.508C146.461 212.491 159.092 212.491 171.739 212.508C171.723 213.331 171.69 214.978 171.673 215.801C159.059 215.818 146.428 215.785 133.814 215.801C133.814 214.978 133.814 213.331 133.814 212.508Z" fill="#222021"></path><path d="M367.607 212.524C380.271 212.508 392.935 212.442 405.598 212.557C405.582 213.381 405.533 214.994 405.516 215.801C392.902 215.818 380.287 215.785 367.657 215.818C367.64 214.994 367.624 213.348 367.607 212.524Z" fill="#222021"></path><path d="M28.42 59.7855C37.1315 39.5795 47.6379 20.1804 56.5964 0.0732422C71.0057 27.0146 75.9955 58.9786 68.9637 88.8511C63.2494 117.538 47.9508 143.804 45.9088 173.282C45.4477 179.161 47.4403 184.908 47.4074 190.787C42.8129 185.451 42.3518 178.074 41.973 171.371C41.1496 147.048 50.0916 122.643 43.6527 98.5013C41.0179 85.7717 33.6074 75.0017 26.8226 64.2153C27.3496 62.7332 27.893 61.2676 28.42 59.7855Z" fill="#F25921"></path><path d="M79.4043 29.6659C96.6954 48.9167 113.707 70.7366 117.28 97.1674C120.87 121.227 111.928 144.677 102.229 166.217C91.821 187.477 81.6933 208.885 71.8785 230.408C59.5276 208.753 53.698 182.734 59.0501 158.115C66.6417 126.776 82.2532 97.1015 82.8625 64.2977C83.5047 52.622 81.4133 41.111 79.4043 29.6659Z" fill="#949599"></path><path d="M19.2803 56.5084C21.3553 58.5833 23.282 60.8064 25.2088 63.0296C26.2627 61.9427 27.3331 60.8558 28.42 59.7854C27.893 61.2675 27.3496 62.7332 26.8226 64.2153C25.851 65.5492 24.9617 66.9489 24.1383 68.3981C15.8386 87.2537 8.69155 107.542 10.5524 128.489C11.9028 147.262 20.5648 164.669 31.5489 179.638C38.8441 188.926 46.0899 198.51 55.3613 205.937C57.6832 207.699 59.2147 210.235 60.878 212.59C43.9985 202.858 27.8271 191.001 16.4973 174.912C5.20038 159.169 -0.579825 139.654 0.0459514 120.321C0.556453 97.7767 8.49393 76.0721 19.2803 56.5084Z" fill="#949599"></path><path d="M24.1384 68.3982C24.9618 66.949 25.851 65.5492 26.8226 64.2153C33.6073 75.0017 41.0179 85.7717 43.6527 98.5013C50.0916 122.643 41.1496 147.048 41.973 171.371C42.3518 178.074 42.8128 185.451 47.4074 190.787C50.0916 195.809 51.9525 201.277 55.3613 205.937C46.0899 198.51 38.8441 188.926 31.5489 179.638C20.5649 164.669 11.9028 147.262 10.5524 128.489C8.69158 107.542 15.8386 87.2538 24.1384 68.3982Z" fill="#8C3002"></path></svg>